<?xml version="1.0" encoding="iso-8859-1"?>
<!-- Generator: Adobe Illustrator 16.0.0, SVG Export Plug-In . SVG Version: 6.00 Build 0)  -->
<!DOCTYPE svg PUBLIC "-//W3C//DTD SVG 1.1//EN" "http://www.w3.org/Graphics/SVG/1.1/DTD/svg11.dtd">
<svg version="1.1" id="Capa_1" xmlns="http://www.w3.org/2000/svg" xmlns:xlink="http://www.w3.org/1999/xlink" x="0px" y="0px"
	 width="737.774px" height="737.773px" viewBox="0 0 737.774 737.773" style="enable-background:new 0 0 737.774 737.773;"
	 xml:space="preserve">
<g>
	<g>
		<path d="M621.73,281.422l-0.025-0.053c0.03,0.007,0.062,0.015,0.096,0.019C621.778,281.402,621.75,281.408,621.73,281.422z"/>
		<path d="M612.407,265.992c-0.003-0.001-0.005-0.001-0.006-0.001c0.001-0.016,0.006-0.032,0.006-0.047V265.992z"/>
	</g>
	<path d="M140.377,227.224c17.727-0.383,29.791,3.097,33.669,16.417l-0.006-13.461c0-19.571,15.87-24.091,35.438-24.091
		c19.263,0,34.419,4.406,35.375,19.277v-4.509c0-19.575,16.529-23.907,36.105-23.907c18.937,0,33.753,4.098,34.694,22.088
		c-0.271-54.642-1.218-187.691-1.218-187.691C315.39,13.1,330.943-0.906,349.186,0.046c18.237,0.959,32.254,16.512,31.284,34.752
		l1.259,318.675c-1.727,10.878,5.687,21.096,16.573,22.827c10.89,1.727,21.098-5.681,22.832-16.562l22.709-109.399
		c4.347-17.74,22.237-28.609,39.978-24.271c17.741,4.343,28.607,22.237,24.27,39.977l-40.707,195.735
		c-0.963,3.93-69.667,136.789-96.929,143.196v89.558c0,23.275-22.491,42.198-45.754,42.978c-1.543,0.171-3.138,0.263-4.793,0.263
		H213.307c-25.485,0-40.862-20.665-40.862-46.149v-87.712c-47.912-26.711-56.472-179.655-56.472-182.845V251.269
		C115.975,231.684,132.661,227.39,140.377,227.224z"/>
	<g>
		<path d="M346.069,347.406l-0.19-0.387c0.227,0.053,0.461,0.106,0.694,0.139C346.417,347.256,346.219,347.307,346.069,347.406z"/>
	</g>
</g>
<g>
</g>
<g>
</g>
<g>
</g>
<g>
</g>
<g>
</g>
<g>
</g>
<g>
</g>
<g>
</g>
<g>
</g>
<g>
</g>
<g>
</g>
<g>
</g>
<g>
</g>
<g>
</g>
<g>
</g>
</svg>
